<?xml version="1.0" encoding="UTF-8" standalone="no"?>
<svg
   viewBox="0 0 384 512"
   version="1.1"
   id="svg4"
   sodipodi:docname="child-reaching-solid.svg"
   inkscape:version="1.1.1 (3bf5ae0d25, 2021-09-20)"
   xmlns:inkscape="http://www.inkscape.org/namespaces/inkscape"
   xmlns:sodipodi="http://sodipodi.sourceforge.net/DTD/sodipodi-0.dtd"
   xmlns="http://www.w3.org/2000/svg"
   xmlns:svg="http://www.w3.org/2000/svg">
  <defs
     id="defs8" />
  <sodipodi:namedview
     id="namedview6"
     pagecolor="#ffffff"
     bordercolor="#666666"
     borderopacity="1.0"
     inkscape:pageshadow="2"
     inkscape:pageopacity="0.0"
     inkscape:pagecheckerboard="0"
     showgrid="false"
     inkscape:zoom="1.6835938"
     inkscape:cx="191.85151"
     inkscape:cy="256.29698"
     inkscape:window-width="1842"
     inkscape:window-height="1051"
     inkscape:window-x="69"
     inkscape:window-y="-9"
     inkscape:window-maximized="1"
     inkscape:current-layer="svg4" />
  <!--! Font Awesome Pro 6.1.2 by @fontawesome - https://fontawesome.com License - https://fontawesome.com/license (Commercial License) Copyright 2022 Fonticons, Inc. -->
  <path
     d="M256 64C256 99.35 227.3 128 192 128C156.7 128 128 99.35 128 64C128 28.65 156.7 0 192 0C227.3 0 256 28.65 256 64zM155.7 170.2C167.3 173.1 179.6 176 192.2 176C232.1 176 269.3 155.8 291 122.4L309.2 94.54C318.8 79.73 338.6 75.54 353.5 85.18C368.3 94.82 372.5 114.6 362.8 129.5L344.7 157.3C326.4 185.4 301.2 207.3 272 221.6V480C272 497.7 257.7 512 240 512C222.3 512 208 497.7 208 480V384H176V480C176 497.7 161.7 512 144 512C126.3 512 112 497.7 112 480V221.4C83.63 207.4 58.94 186.1 40.87 158.1L21.37 129.8C11.57 115 15.54 95.18 30.25 85.37C44.95 75.57 64.82 79.54 74.62 94.25L94.12 123.5C108.5 145 129.2 160.9 152.9 169.3C153.9 169.5 154.8 169.8 155.7 170.2V170.2z"
     id="path2"
     style="fill:#0065fc;fill-opacity:1" />
</svg>
